<svg id="Layer_1" data-name="Layer 1" xmlns="http://www.w3.org/2000/svg" xmlns:xlink="http://www.w3.org/1999/xlink" viewBox="0 0 183.66 141.49"><defs><style>.cls-1{font-size:100px;fill:#231f20;font-family:BernardMT-Condensed, Bernard MT Condensed;}.cls-2{fill:#fff;}.cls-3{fill:url(#linear-gradient);}</style><linearGradient id="linear-gradient" x1="327.86" y1="441.78" x2="348.46" y2="442.47" gradientUnits="userSpaceOnUse"><stop offset="0" stop-color="#95d4f4"/><stop offset="0.86"/></linearGradient></defs><text x="-238.94" y="-354.37"/><text class="cls-1" transform="translate(23.87 109.53)">D</text><text class="cls-1" transform="translate(159.8 30.73) rotate(180)">D</text><rect class="cls-2" x="253.85" y="423.04" width="154.93" height="2.73" transform="translate(17.65 -463.17) rotate(30)"/><path class="cls-3" d="M376.64,433.25a21.63,21.63,0,0,0-5.43-7.92,19.57,19.57,0,0,0-13.69-5.51,18.42,18.42,0,0,0-11.08,3.67,16.8,16.8,0,0,0-3.5,3.3q-1.41,1.8-5,7.64c-.36.58-.9,1.45-1.65,2.59Q326.14,420,313.69,420a19.58,19.58,0,0,0-13.5,5.3,22.65,22.65,0,0,0-6,8.46,27.1,27.1,0,0,0-2.16,10.7A24.71,24.71,0,0,0,294,454a21.43,21.43,0,0,0,5.38,7.64,20.8,20.8,0,0,0,3,2.22h65.76a24.66,24.66,0,0,0,2.12-1.61,22.65,22.65,0,0,0,6.11-8.37,26.37,26.37,0,0,0,2.2-10.72A26,26,0,0,0,376.64,433.25Zm-50.57,19.66a18.12,18.12,0,0,1-4.33,3.27,19.52,19.52,0,0,1-9.37,2.17q-7.72,0-12.31-3.94a13.19,13.19,0,0,1-4.59-10.53,16.92,16.92,0,0,1,1.41-6.84,14.53,14.53,0,0,1,3.77-5.26,11.53,11.53,0,0,1,7.67-2.72q7.26,0,13.23,5.91,3.4,3.34,8.84,12.16C322,460.17,317.86,461.42,326.07,452.91Zm45.14,1.46a12.33,12.33,0,0,1-9.64,4.38q-7.26,0-14-6.31-4.07-3.75-9.43-12.57a34.07,34.07,0,0,1,4.23-5.82,18,18,0,0,1,4.54-3.35,21.89,21.89,0,0,1,10.36-2.38q8.19,0,13,4.1a13.85,13.85,0,0,1,4.82,11.11A15.81,15.81,0,0,1,371.21,454.37Z" transform="translate(-238.94 -354.37)"/><rect class="cls-2" x="252.22" y="423.23" width="157.78" height="2.73" transform="translate(-403.42 -140.26) rotate(-29.04)"/></svg>